<?xml version="1.0" encoding="UTF-8" standalone="no"?><svg xmlns="http://www.w3.org/2000/svg" xmlns:xlink="http://www.w3.org/1999/xlink" contentStyleType="text/css" height="247px" preserveAspectRatio="none" style="width:673px;height:247px;background:#FFFFFF;" version="1.1" viewBox="0 0 673 247" width="673px" zoomAndPan="magnify"><defs/><g><rect fill="#F1F1F1" height="36.2969" rx="12.5" ry="12.5" style="stroke:#181818;stroke-width:1.5;" width="67" x="10" y="104.4453"/><text fill="#000000" font-family="sans-serif" font-size="14" lengthAdjust="spacing" textLength="47" x="20" y="127.4404">Server</text><rect fill="#F1F1F1" height="36.2969" rx="12.5" ry="12.5" style="stroke:#181818;stroke-width:1.5;" width="141" x="127" y="20"/><text fill="#000000" font-family="sans-serif" font-size="14" lengthAdjust="spacing" textLength="121" x="137" y="42.9951">User Router (API)</text><rect fill="#F1F1F1" height="36.2969" rx="12.5" ry="12.5" style="stroke:#181818;stroke-width:1.5;" width="108" x="318" y="20"/><text fill="#000000" font-family="sans-serif" font-size="14" lengthAdjust="spacing" textLength="88" x="328" y="42.9951">User Service</text><rect fill="#F1F1F1" height="36.2969" rx="12.5" ry="12.5" style="stroke:#181818;stroke-width:1.5;" width="155" x="476" y="20"/><text fill="#000000" font-family="sans-serif" font-size="14" lengthAdjust="spacing" textLength="135" x="486" y="42.9951">Control User (DAO)</text><path d="M426,38.1484 L436,38.1484 C451,38.1484 451,38.1484 466,38.1484 L476,38.1484 " fill="none" style="stroke:#181818;stroke-width:1.0;"/><path d="M268,38.1484 L278,38.1484 C293,38.1484 293,38.1484 308,38.1484 L318,38.1484 " fill="none" style="stroke:#181818;stroke-width:1.0;"/><path d="M77,122.5938 L87,122.5938 C102,122.5938 102,38.1484 117,38.1484 L127,38.1484 " fill="none" style="stroke:#181818;stroke-width:1.0;"/><rect fill="#F1F1F1" height="36.2969" rx="12.5" ry="12.5" style="stroke:#181818;stroke-width:1.5;" width="142" x="127" y="76.2969"/><text fill="#000000" font-family="sans-serif" font-size="14" lengthAdjust="spacing" textLength="122" x="137" y="99.292">Test Router (API)</text><rect fill="#F1F1F1" height="36.2969" rx="12.5" ry="12.5" style="stroke:#181818;stroke-width:1.5;" width="109" x="319" y="76.2969"/><text fill="#000000" font-family="sans-serif" font-size="14" lengthAdjust="spacing" textLength="89" x="329" y="99.292">Test Service</text><rect fill="#F1F1F1" height="36.2969" rx="12.5" ry="12.5" style="stroke:#181818;stroke-width:1.5;" width="156" x="478" y="76.2969"/><text fill="#000000" font-family="sans-serif" font-size="14" lengthAdjust="spacing" textLength="136" x="488" y="99.292">Control Test (DAO)</text><path d="M428,94.4453 L438,94.4453 C453,94.4453 453,94.4453 468,94.4453 L478,94.4453 " fill="none" style="stroke:#181818;stroke-width:1.0;"/><path d="M269,94.4453 L279,94.4453 C294,94.4453 294,94.4453 309,94.4453 L319,94.4453 " fill="none" style="stroke:#181818;stroke-width:1.0;"/><path d="M77,122.5938 L87,122.5938 C102,122.5938 102,94.4453 117,94.4453 L127,94.4453 " fill="none" style="stroke:#181818;stroke-width:1.0;"/><rect fill="#F1F1F1" height="36.2969" rx="12.5" ry="12.5" style="stroke:#181818;stroke-width:1.5;" width="138" x="127" y="132.5938"/><text fill="#000000" font-family="sans-serif" font-size="14" lengthAdjust="spacing" textLength="118" x="137" y="155.5889">SKU Router (API)</text><rect fill="#F1F1F1" height="36.2969" rx="12.5" ry="12.5" style="stroke:#181818;stroke-width:1.5;" width="105" x="315" y="132.5938"/><text fill="#000000" font-family="sans-serif" font-size="14" lengthAdjust="spacing" textLength="85" x="325" y="155.5889">SKU Service</text><rect fill="#F1F1F1" height="36.2969" rx="12.5" ry="12.5" style="stroke:#181818;stroke-width:1.5;" width="152" x="470" y="132.5938"/><text fill="#000000" font-family="sans-serif" font-size="14" lengthAdjust="spacing" textLength="132" x="480" y="155.5889">Control SKU (DAO)</text><path d="M420,150.7422 L430,150.7422 C445,150.7422 445,150.7422 460,150.7422 L470,150.7422 " fill="none" style="stroke:#181818;stroke-width:1.0;"/><path d="M265,150.7422 L275,150.7422 C290,150.7422 290,150.7422 305,150.7422 L315,150.7422 " fill="none" style="stroke:#181818;stroke-width:1.0;"/><path d="M77,122.5938 L87,122.5938 C102,122.5938 102,150.7422 117,150.7422 L127,150.7422 " fill="none" style="stroke:#181818;stroke-width:1.0;"/><rect fill="#F1F1F1" height="36.2969" rx="12.5" ry="12.5" style="stroke:#181818;stroke-width:1.5;" width="151" x="127" y="188.8906"/><text fill="#000000" font-family="sans-serif" font-size="14" lengthAdjust="spacing" textLength="131" x="137" y="211.8857">Order Router (API)</text><rect fill="#F1F1F1" height="36.2969" rx="12.5" ry="12.5" style="stroke:#181818;stroke-width:1.5;" width="118" x="328" y="188.8906"/><text fill="#000000" font-family="sans-serif" font-size="14" lengthAdjust="spacing" textLength="98" x="338" y="211.8857">Order Service</text><rect fill="#F1F1F1" height="36.2969" rx="12.5" ry="12.5" style="stroke:#181818;stroke-width:1.5;" width="165" x="496" y="188.8906"/><text fill="#000000" font-family="sans-serif" font-size="14" lengthAdjust="spacing" textLength="145" x="506" y="211.8857">Control Order (DAO)</text><path d="M446,207.0391 L456,207.0391 C471,207.0391 471,207.0391 486,207.0391 L496,207.0391 " fill="none" style="stroke:#181818;stroke-width:1.0;"/><path d="M278,207.0391 L288,207.0391 C303,207.0391 303,207.0391 318,207.0391 L328,207.0391 " fill="none" style="stroke:#181818;stroke-width:1.0;"/><path d="M77,122.5938 L87,122.5938 C102,122.5938 102,207.0391 117,207.0391 L127,207.0391 " fill="none" style="stroke:#181818;stroke-width:1.0;"/><!--MD5=[c05ea9c7770616684ff353ab8ac9ced2]
@startmindmap
* Server
** User Router (API)
*** User Service
**** Control User (DAO)
** Test Router (API)
*** Test Service
**** Control Test (DAO)
** SKU Router (API)
*** SKU Service
**** Control SKU (DAO)
** Order Router (API)
*** Order Service
**** Control Order (DAO)
@endmindmap

PlantUML version 1.2022.6beta2(Unknown compile time)
(GPL source distribution)
Java Runtime: Java(TM) SE Runtime Environment
JVM: Java HotSpot(TM) 64-Bit Server VM
Default Encoding: UTF-8
Language: en
Country: US
--></g></svg>